# xmcd CD database file
#
# Track frame offsets:
#	150
#	21510
#	48595
#	68230
#	87805
#	110460
#	131465
#	147520
#	161650
#	181615
#	201825
#	219020
#	238175
#	259415
#	275010
#	293695
#
# Disc length: 4169 seconds
#
# Revision: 0
# Processed by: cddbd v1.5.1PL0 Copyright (c) Steve Scherf et al.
# Submitted via: CDex 1.51
#
DISCID=f1104710
DTITLE=Los 4 Grandes del Merengue House - CD2
DYEAR=2004
DGENRE=Merengue
TTITLE0=La Hora de Bailar
TTITLE1=Todo el Mundo
TTITLE2=Lo que Quiere Mi Gente
TTITLE3=El Cepillo
TTITLE4=Candela
TTITLE5=Esta Pegado
TTITLE6=Dame de Eso
TTITLE7=Mano Fria
TTITLE8=Huelepega
TTITLE9=Tan Interesada
TTITLE10=Baila
TTITLE11=Cha Cha Cha
TTITLE12=La Movida
TTITLE13=Chica Bomba
TTITLE14=Enamorado
TTITLE15=Mi Con Con
EXTD=YEAR: 2004
EXTT0=
EXTT1=
EXTT2=
EXTT3=
EXTT4=
EXTT5=
EXTT6=
EXTT7=
EXTT8=
EXTT9=
EXTT10=
EXTT11=
EXTT12=
EXTT13=
EXTT14=
EXTT15=
PLAYORDER=
